<svg width="405" height="405" viewBox="0 0 405 405" fill="none" xmlns="http://www.w3.org/2000/svg">
<rect width="405" height="405" fill="white"/>
<path d="M317.789 111H107.129C89.7855 111 75.6921 125.087 75.6921 142.423V161.238H63.9154C59.5394 161.238 56 164.776 56 169.15V235.855C56 240.197 59.5394 243.767 63.9154 243.767H75.6921V262.582C75.6921 279.886 89.7855 293.973 107.129 293.973H317.789C335.132 293.973 349.226 279.886 349.226 262.582V142.423C349.226 125.087 335.132 111 317.789 111ZM66.8113 232.96V172.045H94.3867V232.96H66.8113ZM338.414 262.582C338.414 273.968 329.179 283.166 317.789 283.166H107.129C95.7381 283.166 86.5034 273.968 86.5034 262.582V243.767H97.2826C101.659 243.767 105.198 240.197 105.198 235.855V169.15C105.198 164.776 101.659 161.238 97.2826 161.238H86.5034V142.423C86.5034 131.037 95.7381 121.807 107.129 121.807H317.789C329.179 121.807 338.414 131.037 338.414 142.423V262.582Z" fill="#AAA6A2"/>
<path d="M224.187 171.98H215.371C213.633 167.477 210.062 163.875 205.589 162.106V153.197C205.589 151.203 203.981 149.594 202.018 149.594H199.476C197.513 149.594 195.872 151.203 195.872 153.197V160.948H188.504V153.197C188.504 151.203 186.895 149.594 184.9 149.594H182.358C180.395 149.594 178.786 151.203 178.786 153.197V160.948H171.418V153.197C171.418 151.203 169.777 149.594 167.814 149.594H165.272C163.309 149.594 161.7 151.203 161.7 153.197V160.948H154.3V153.197C154.3 151.203 152.691 149.594 150.728 149.594H148.186C146.191 149.594 144.582 151.203 144.582 153.197V162.074C140.013 163.778 136.345 167.413 134.576 172.012H125.148C123.185 172.012 121.576 173.62 121.576 175.582V178.123C121.576 180.085 123.185 181.693 125.148 181.693H133.449V189.09H125.148C123.185 189.09 121.576 190.698 121.576 192.66V195.201C121.576 197.163 123.185 198.803 125.148 198.803H133.449V206.168H125.148C123.185 206.168 121.576 207.777 121.576 209.771V212.311C121.576 214.273 123.185 215.881 125.148 215.881H133.449V223.279H125.148C123.185 223.279 121.576 224.887 121.576 226.849V229.39C121.576 231.352 123.185 232.96 125.148 232.96H134.576C136.345 237.559 140.013 241.193 144.582 242.898V251.743C144.582 253.705 146.191 255.313 148.186 255.313H150.728C152.691 255.313 154.3 253.705 154.3 251.743V244.024H161.7V251.743C161.7 253.705 163.309 255.313 165.272 255.313H167.814C169.777 255.313 171.418 253.705 171.418 251.743V244.024H178.786V251.743C178.786 253.705 180.395 255.313 182.358 255.313H184.9C186.895 255.313 188.504 253.705 188.504 251.743V244.024H195.872V251.743C195.872 253.705 197.513 255.313 199.476 255.313H202.018C203.981 255.313 205.589 253.705 205.589 251.743V242.834C210.062 241.065 213.666 237.463 215.371 232.96H224.187C226.15 232.96 227.759 231.352 227.759 229.39V226.849C227.759 224.887 226.15 223.279 224.187 223.279H216.529V215.881H224.187C226.15 215.881 227.759 214.273 227.759 212.311V209.771C227.759 207.777 226.15 206.168 224.187 206.168H216.529V198.803H224.187C226.15 198.803 227.759 197.163 227.759 195.201V192.66C227.759 190.698 226.15 189.09 224.187 189.09H216.529V181.693H224.187C226.15 181.693 227.759 180.085 227.759 178.123V175.582C227.759 173.62 226.15 172.012 224.187 172.012V171.98ZM206.748 226.945C206.748 231.03 203.466 234.278 199.411 234.278H150.471C146.384 234.278 143.135 230.998 143.135 226.945V178.026C143.135 173.974 146.417 170.693 150.471 170.693H199.411C203.466 170.693 206.748 173.974 206.748 178.026V226.945Z" fill="#AAA6A2"/>
<path d="M190.241 177.223H159.834C154.3 177.223 149.763 181.758 149.763 187.322V217.683C149.763 223.247 154.3 227.782 159.834 227.782H190.241C195.807 227.782 200.312 223.247 200.312 217.683V187.322C200.312 181.758 195.807 177.223 190.241 177.223ZM190.563 217.651C190.563 217.844 190.434 217.973 190.241 217.973H159.834C159.834 217.973 159.512 217.844 159.512 217.651V187.29C159.512 187.097 159.673 186.968 159.834 186.968H190.241C190.434 186.968 190.563 187.097 190.563 187.29V217.651Z" fill="#AAA6A2"/>
<path d="M121.479 248.463C114.078 248.463 108.094 254.477 108.094 261.843C108.094 269.208 114.111 275.222 121.479 275.222C128.847 275.222 134.864 269.208 134.864 261.843C134.864 254.477 128.847 248.463 121.479 248.463ZM121.479 268.339C117.875 268.339 114.979 265.413 114.979 261.843C114.979 258.272 117.907 255.346 121.479 255.346C125.051 255.346 127.979 258.272 127.979 261.843C127.979 265.413 125.051 268.339 121.479 268.339Z" fill="#AAA6A2"/>
<path d="M121.479 155.577C128.847 155.577 134.864 149.563 134.864 142.198C134.864 134.833 128.847 128.818 121.479 128.818C114.111 128.818 108.094 134.833 108.094 142.198C108.094 149.563 114.111 155.577 121.479 155.577ZM121.479 135.701C125.051 135.701 127.979 138.628 127.979 142.198C127.979 145.768 125.051 148.695 121.479 148.695C117.907 148.695 114.979 145.768 114.979 142.198C114.979 138.628 117.907 135.701 121.479 135.701Z" fill="#AAA6A2"/>
<path d="M300.518 155.343H265.928C259.074 155.343 253.508 160.907 253.508 167.758V202.333C253.508 209.183 259.074 214.747 265.928 214.747H300.518C307.371 214.747 312.938 209.183 312.938 202.333V167.758C312.938 160.907 307.371 155.343 300.518 155.343ZM302.899 168.369V201.754C302.899 203.394 301.547 204.745 299.906 204.745H266.507C264.866 204.745 263.514 203.394 263.514 201.754V168.369C263.514 166.729 264.866 165.378 266.507 165.378H299.906C301.547 165.378 302.899 166.729 302.899 168.369Z" fill="#AAA6A2"/>
<path d="M308.948 225.007H296.239C292.313 225.007 289.095 228.191 289.095 232.147L277.319 232.244V232.147C277.319 228.191 274.101 225.007 270.175 225.007H257.466C253.54 225.007 250.323 228.191 250.323 232.147V244.851C250.323 248.775 253.54 251.991 257.466 251.991H270.175C274.101 251.991 277.319 248.775 277.319 244.851L289.095 244.723V244.851C289.095 248.775 292.313 251.991 296.239 251.991H308.948C312.874 251.991 316.092 248.775 316.092 244.851V232.147C316.092 228.191 312.874 225.007 308.948 225.007ZM268.47 243.115L259.203 243.018L259.3 233.884L268.47 233.948V243.115ZM307.243 233.948V243.115L297.976 243.018L298.073 233.884L307.243 233.948Z" fill="#AAA6A2"/>
</svg>
